<svg width="36" height="33" viewBox="0 0 36 33" fill="none" xmlns="http://www.w3.org/2000/svg">
<path d="M9.43541 1.71871C8.78299 0.308445 8.09639 0.279988 7.47596 0.255256C6.96791 0.233981 6.38713 0.235577 5.8069 0.235577C5.22611 0.235577 4.28248 0.448061 3.48487 1.29507C2.68643 2.14288 0.436584 4.19166 0.436584 8.35863C0.436584 12.5259 3.55733 16.5529 3.99237 17.1186C4.42795 17.6832 10.017 26.508 18.8687 29.903C26.2253 32.7243 27.7224 32.1632 29.319 32.0217C30.9158 31.8808 34.4716 29.9735 35.1971 27.9957C35.923 26.0182 35.923 24.3231 35.7054 23.9689C35.4877 23.616 34.9069 23.404 34.036 22.9806C33.1649 22.557 28.8834 20.508 28.0852 20.2253C27.2868 19.9428 26.7063 19.8019 26.1255 20.65C25.5447 21.4967 23.877 23.404 23.3687 23.9689C22.8609 24.535 22.3526 24.6055 21.482 24.1819C20.6105 23.7569 17.8059 22.8636 14.4784 19.9785C11.8895 17.7334 10.1417 14.961 9.63365 14.113C9.12561 13.2662 9.57924 12.8072 10.0159 12.3852C10.4072 12.0057 10.8871 11.3962 11.323 10.9018C11.7572 10.4071 11.9021 10.0542 12.1925 9.48939C12.4831 8.92401 12.3377 8.42937 12.1203 8.00573C11.9021 7.58209 10.2098 3.39331 9.43541 1.71871Z" fill="white"/>
</svg>
